<?xml version="1.0" encoding="utf-8"?>
<svg viewBox="0 0 594 100" style="enable-background:new 0 0 594 100;" xmlns="http://www.w3.org/2000/svg">
  <defs>
    <style type="text/css">
	.st0{fill-rule:evenodd;clip-rule:evenodd;}
	.st1{fill-rule:evenodd;clip-rule:evenodd;fill:#656565;}
</style>
  </defs>
  <path class="st0" fill="#656565" d="M 170.203 46.989 L 159.403 46.989 L 159.403 67.889 C 159.403 73.489 163.103 73.389 170.203 73.089 L 170.203 81.589 C 155.703 83.289 150.003 79.289 150.003 67.989 L 150.003 47.089 L 142.003 47.089 L 142.003 37.989 L 150.003 37.989 L 150.003 26.289 L 159.403 23.489 L 159.403 37.989 L 170.203 37.989 L 170.203 46.989 Z M 211.403 37.889 L 220.803 37.889 L 220.803 81.489 L 211.403 81.489 L 211.403 75.189 C 208.103 79.789 202.903 82.589 196.103 82.589 C 184.203 82.589 174.403 72.589 174.403 59.689 C 174.403 46.689 184.303 36.789 196.103 36.789 C 202.903 36.789 208.103 39.589 211.403 44.089 L 211.403 37.889 Z M 197.603 73.689 C 205.503 73.689 211.403 67.889 211.403 59.689 C 211.403 51.589 205.503 45.689 197.603 45.689 C 189.803 45.689 183.803 51.489 183.803 59.689 C 183.803 67.889 189.803 73.689 197.603 73.689 L 197.603 73.689 Z M 236.503 31.389 C 233.203 31.389 230.503 28.589 230.503 25.389 C 230.503 22.089 233.203 19.389 236.503 19.389 C 239.803 19.389 242.503 22.089 242.503 25.389 C 242.603 28.589 239.803 31.389 236.503 31.389 L 236.503 31.389 Z M 231.803 81.489 L 231.803 37.889 L 241.203 37.889 L 241.203 81.489 L 231.803 81.489 Z M 252.103 81.489 L 252.103 17.789 L 261.503 17.789 L 261.503 81.489 L 252.103 81.489 Z M 322.703 37.889 L 332.603 37.889 L 318.903 81.489 L 309.703 81.489 L 300.603 52.089 L 291.403 81.489 L 282.203 81.489 L 268.503 37.889 L 278.403 37.889 L 286.903 67.989 L 296.103 37.889 L 305.103 37.889 L 314.203 67.989 L 322.703 37.889 Z M 344.403 31.389 C 341.103 31.389 338.403 28.589 338.403 25.389 C 338.403 22.089 341.103 19.389 344.403 19.389 C 347.703 19.389 350.403 22.089 350.403 25.389 C 350.403 28.589 347.703 31.389 344.403 31.389 L 344.403 31.389 Z M 339.603 81.489 L 339.603 37.889 L 349.003 37.889 L 349.003 81.489 L 339.603 81.489 Z M 382.903 36.789 C 392.703 36.789 399.703 43.389 399.703 54.789 L 399.703 81.589 L 390.303 81.589 L 390.303 55.689 C 390.303 49.089 386.503 45.589 380.503 45.589 C 374.303 45.589 369.403 49.289 369.403 58.189 L 369.403 81.589 L 360.003 81.589 L 360.003 37.989 L 369.403 37.989 L 369.403 43.589 C 372.303 38.989 377.003 36.789 382.903 36.789 L 382.903 36.789 Z M 444.303 20.489 L 453.703 20.489 L 453.703 81.589 L 444.303 81.589 L 444.303 75.289 C 441.003 79.889 435.803 82.689 429.003 82.689 C 417.103 82.689 407.303 72.689 407.303 59.789 C 407.303 46.789 417.203 36.889 429.003 36.889 C 435.803 36.889 441.003 39.689 444.303 44.189 L 444.303 20.489 Z M 430.603 73.689 C 438.503 73.689 444.403 67.889 444.403 59.689 C 444.403 51.589 438.503 45.689 430.603 45.689 C 422.803 45.689 416.803 51.489 416.803 59.689 C 416.803 67.889 422.703 73.689 430.603 73.689 L 430.603 73.689 Z M 485.303 82.689 C 472.103 82.689 462.303 72.689 462.303 59.789 C 462.303 46.789 472.203 36.889 485.303 36.889 C 493.903 36.889 501.303 41.289 504.803 48.189 L 496.703 52.889 C 494.803 48.789 490.503 46.189 485.303 46.189 C 477.603 46.189 471.803 51.989 471.803 59.889 C 471.803 67.789 477.603 73.589 485.303 73.589 C 490.503 73.589 494.803 70.889 496.903 66.889 L 505.003 71.489 C 501.303 78.189 493.903 82.689 485.303 82.689 L 485.303 82.689 Z M 520.503 49.989 C 520.503 57.889 544.003 53.089 544.003 69.289 C 544.003 77.989 536.403 82.689 527.003 82.689 C 518.303 82.689 512.003 78.789 509.203 72.489 L 517.303 67.789 C 518.703 71.689 522.203 74.089 527.003 74.089 C 531.203 74.089 534.403 72.689 534.403 69.189 C 534.403 61.389 510.903 65.789 510.903 50.189 C 510.903 41.989 518.003 36.889 526.903 36.889 C 534.103 36.889 540.003 40.189 543.003 45.989 L 535.103 50.389 C 533.503 46.989 530.503 45.389 526.903 45.389 C 523.503 45.289 520.503 46.789 520.503 49.989 L 520.503 49.989 Z M 560.703 49.989 C 560.703 57.889 584.203 53.089 584.203 69.289 C 584.203 77.989 576.603 82.689 567.203 82.689 C 558.503 82.689 552.203 78.789 549.403 72.489 L 557.503 67.789 C 558.903 71.689 562.403 74.089 567.203 74.089 C 571.403 74.089 574.603 72.689 574.603 69.189 C 574.603 61.389 551.103 65.789 551.103 50.189 C 551.103 41.989 558.203 36.889 567.103 36.889 C 574.303 36.889 580.203 40.189 583.203 45.989 L 575.303 50.389 C 573.703 46.989 570.703 45.389 567.103 45.389 C 563.703 45.289 560.703 46.789 560.703 49.989 L 560.703 49.989 Z M 560.703 49.989"/>
  <path fill="#656565" class="st1" d="M 70.644 14.508 C 54.144 14.508 43.744 22.808 39.644 39.308 C 45.844 31.008 53.044 27.908 61.344 30.008 C 66.044 31.208 69.444 34.608 73.144 38.408 C 79.244 44.608 86.244 51.708 101.644 51.708 C 118.144 51.708 128.544 43.408 132.644 26.908 C 126.444 35.208 119.244 38.308 110.944 36.208 C 106.244 35.008 102.844 31.608 99.144 27.808 C 93.044 21.608 86.044 14.508 70.644 14.508 L 70.644 14.508 Z M 39.644 51.608 C 23.144 51.608 12.744 59.908 8.644 76.408 C 14.844 68.108 22.044 65.008 30.344 67.108 C 35.044 68.308 38.444 71.708 42.144 75.508 C 48.244 81.708 55.244 88.808 70.644 88.808 C 87.144 88.808 97.544 80.508 101.644 64.008 C 95.444 72.308 88.244 75.408 79.944 73.308 C 75.244 72.108 71.844 68.708 68.144 64.908 C 62.044 58.808 55.044 51.608 39.644 51.608 L 39.644 51.608 Z M 39.644 51.608"/>
</svg>